<svg width="72" height="72" viewBox="0 0 72 72" fill="none" xmlns="http://www.w3.org/2000/svg">
<rect width="72" height="72" rx="26" fill="#1F232A"/>
<path d="M19.85 45L14.03 28.86H18.44L23.27 42.75H21.17L26.21 28.86H30.17L35.06 42.75H32.96L37.94 28.86H42.08L36.23 45H31.7L27.41 33.09H28.79L24.35 45H19.85Z" fill="white"/>
<path d="M49.6857 45.24C48.3057 45.24 46.9757 45.08 45.6957 44.76C44.4357 44.42 43.4357 44 42.6957 43.5L44.2557 40.14C44.9957 40.6 45.8657 40.98 46.8657 41.28C47.8857 41.56 48.8857 41.7 49.8657 41.7C50.9457 41.7 51.7057 41.57 52.1457 41.31C52.6057 41.05 52.8357 40.69 52.8357 40.23C52.8357 39.85 52.6557 39.57 52.2957 39.39C51.9557 39.19 51.4957 39.04 50.9157 38.94C50.3357 38.84 49.6957 38.74 48.9957 38.64C48.3157 38.54 47.6257 38.41 46.9257 38.25C46.2257 38.07 45.5857 37.81 45.0057 37.47C44.4257 37.13 43.9557 36.67 43.5957 36.09C43.2557 35.51 43.0857 34.76 43.0857 33.84C43.0857 32.82 43.3757 31.92 43.9557 31.14C44.5557 30.36 45.4157 29.75 46.5357 29.31C47.6557 28.85 48.9957 28.62 50.5557 28.62C51.6557 28.62 52.7757 28.74 53.9157 28.98C55.0557 29.22 56.0057 29.57 56.7657 30.03L55.2057 33.36C54.4257 32.9 53.6357 32.59 52.8357 32.43C52.0557 32.25 51.2957 32.16 50.5557 32.16C49.5157 32.16 48.7557 32.3 48.2757 32.58C47.7957 32.86 47.5557 33.22 47.5557 33.66C47.5557 34.06 47.7257 34.36 48.0657 34.56C48.4257 34.76 48.8957 34.92 49.4757 35.04C50.0557 35.16 50.6857 35.27 51.3657 35.37C52.0657 35.45 52.7657 35.58 53.4657 35.76C54.1657 35.94 54.7957 36.2 55.3557 36.54C55.9357 36.86 56.4057 37.31 56.7657 37.89C57.1257 38.45 57.3057 39.19 57.3057 40.11C57.3057 41.11 57.0057 42 56.4057 42.78C55.8057 43.54 54.9357 44.14 53.7957 44.58C52.6757 45.02 51.3057 45.24 49.6857 45.24Z" fill="#FF0000"/>
</svg>
